<svg width="98" height="106" viewBox="0 0 98 106" fill="none" xmlns="http://www.w3.org/2000/svg">
<path d="M1 105.409V17.528C1.00027 13.1446 2.74169 8.94078 5.84123 5.84123C8.94078 2.74169 13.1446 1.00027 17.528 1H80.253C84.6366 1 88.8407 2.74131 91.9404 5.84088C95.0402 8.94045 96.7817 13.1444 96.782 17.528V105.409" fill="#FCFCFC"/>
<path d="M1 105.409V17.528C1.00027 13.1446 2.74169 8.94078 5.84123 5.84123C8.94078 2.74169 13.1446 1.00027 17.528 1H80.253C84.6366 1 88.8407 2.74131 91.9404 5.84088C95.0402 8.94045 96.7817 13.1444 96.782 17.528V105.409" stroke="#D7D7D7" stroke-miterlimit="10"/>
<path d="M83.9543 25.978H14.9533C13.154 25.978 11.6953 27.4367 11.6953 29.236V42.55C11.6953 44.3494 13.154 45.808 14.9533 45.808H83.9543C85.7537 45.808 87.2123 44.3494 87.2123 42.55V29.236C87.2123 27.4367 85.7537 25.978 83.9543 25.978Z" stroke="#D7D7D7" stroke-width="1.03" stroke-miterlimit="10"/>
<path d="M83.9543 52.4771H14.9533C13.154 52.4771 11.6953 53.9357 11.6953 55.7351V69.0491C11.6953 70.8484 13.154 72.3071 14.9533 72.3071H83.9543C85.7537 72.3071 87.2123 70.8484 87.2123 69.0491V55.7351C87.2123 53.9357 85.7537 52.4771 83.9543 52.4771Z" stroke="#D7D7D7" stroke-width="1.03" stroke-miterlimit="10"/>
<path d="M83.9543 78.9761H14.9533C13.154 78.9761 11.6953 80.4347 11.6953 82.2341V95.5481C11.6953 97.3474 13.154 98.8061 14.9533 98.8061H83.9543C85.7537 98.8061 87.2123 97.3474 87.2123 95.5481V82.2341C87.2123 80.4347 85.7537 78.9761 83.9543 78.9761Z" stroke="#D7D7D7" stroke-width="1.03" stroke-miterlimit="10"/>
<path d="M32.0332 35.8931H69.5902" stroke="#D7D7D7" stroke-width="1.03" stroke-miterlimit="10" stroke-linecap="round"/>
<path d="M32.0332 88.8911H69.5902" stroke="#D7D7D7" stroke-width="1.03" stroke-miterlimit="10" stroke-linecap="round"/>
<path d="M41.5391 14.3511H59.8841" stroke="#D7D7D7" stroke-miterlimit="10" stroke-linecap="round"/>
<path d="M32.0332 63.3311H69.5902" stroke="#D7D7D7" stroke-width="1.03" stroke-miterlimit="10" stroke-linecap="round"/>
<path d="M25.7357 36.9132C25.7357 37.0557 25.7922 37.1922 25.8929 37.293C25.9936 37.3937 26.1302 37.4502 26.2727 37.4502C26.4151 37.4502 26.5517 37.3937 26.6524 37.293C26.7531 37.1922 26.8097 37.0557 26.8097 36.9132V33.1522C26.8098 33.117 26.8068 33.0819 26.8007 33.0472C26.7969 33.0316 26.7922 33.0163 26.7867 33.0012L26.7697 32.9472C26.7619 32.9294 26.7525 32.9124 26.7417 32.8962C26.7356 32.8816 26.7282 32.8676 26.7197 32.8542C26.6802 32.7953 26.6296 32.7447 26.5707 32.7052C26.5578 32.697 26.5445 32.6897 26.5307 32.6832C26.5138 32.6724 26.4961 32.663 26.4777 32.6552C26.4602 32.648 26.4421 32.6423 26.4237 32.6382C26.4087 32.6382 26.3927 32.6272 26.3777 32.6242C26.343 32.6181 26.3078 32.6151 26.2727 32.6152H22.5117C22.3692 32.6152 22.2326 32.6718 22.1319 32.7725C22.0312 32.8732 21.9747 33.0098 21.9747 33.1522C21.9747 33.2947 22.0312 33.4312 22.1319 33.532C22.2326 33.6327 22.3692 33.6892 22.5117 33.6892H24.9757L20.3137 38.6482C20.2129 38.749 20.1562 38.8857 20.1562 39.0282C20.1562 39.1708 20.2129 39.3075 20.3137 39.4082C20.4144 39.509 20.5511 39.5656 20.6937 39.5656C20.8362 39.5656 20.9729 39.509 21.0737 39.4082L25.7357 34.4492V36.9132Z" fill="#D7D7D7"/>
<path d="M25.7357 89.713C25.7357 89.8554 25.7922 89.992 25.8929 90.0927C25.9936 90.1934 26.1302 90.25 26.2727 90.25C26.4151 90.25 26.5517 90.1934 26.6524 90.0927C26.7531 89.992 26.8097 89.8554 26.8097 89.713V85.953C26.8098 85.9178 26.8068 85.8827 26.8007 85.848C26.7969 85.8324 26.7922 85.8171 26.7867 85.802L26.7697 85.748C26.7619 85.7302 26.7525 85.7132 26.7417 85.697C26.7356 85.6824 26.7282 85.6683 26.7197 85.655C26.6802 85.5961 26.6296 85.5455 26.5707 85.506C26.5578 85.4978 26.5445 85.4905 26.5307 85.484C26.5138 85.4732 26.4961 85.4638 26.4777 85.456C26.4602 85.4487 26.4421 85.4431 26.4237 85.439C26.4087 85.439 26.3927 85.428 26.3777 85.425C26.343 85.4189 26.3078 85.4159 26.2727 85.416H22.5117C22.3692 85.416 22.2326 85.4726 22.1319 85.5733C22.0312 85.674 21.9747 85.8106 21.9747 85.953C21.9747 86.0954 22.0312 86.232 22.1319 86.3327C22.2326 86.4334 22.3692 86.49 22.5117 86.49H24.9757L20.3137 91.449C20.2637 91.4989 20.2242 91.5582 20.1972 91.6234C20.1702 91.6886 20.1563 91.7584 20.1563 91.829C20.1562 91.8996 20.1702 91.9695 20.1972 92.0347C20.2242 92.0999 20.2637 92.1591 20.3137 92.209C20.3636 92.2589 20.4228 92.2985 20.488 92.3255C20.5532 92.3525 20.6231 92.3664 20.6937 92.3664C20.7642 92.3664 20.8341 92.3525 20.8993 92.3255C20.9645 92.2985 21.0237 92.2589 21.0737 92.209L25.7357 87.25V89.713Z" fill="#D7D7D7"/>
<path d="M21.2303 62.5079C21.2303 62.3655 21.1737 62.2289 21.073 62.1282C20.9723 62.0275 20.8357 61.9709 20.6933 61.9709C20.5508 61.9709 20.4142 62.0275 20.3135 62.1282C20.2128 62.2289 20.1563 62.3655 20.1563 62.5079V66.2659C20.1561 66.3011 20.1591 66.3363 20.1653 66.3709C20.169 66.3865 20.1737 66.4019 20.1793 66.4169L20.1963 66.4709C20.2041 66.4887 20.2134 66.5058 20.2243 66.5219C20.2303 66.5366 20.2377 66.5506 20.2463 66.5639C20.2857 66.6229 20.3363 66.6735 20.3953 66.7129C20.4081 66.7211 20.4215 66.7285 20.4353 66.7349C20.4521 66.7458 20.4698 66.7552 20.4883 66.7629C20.5057 66.7702 20.5238 66.7759 20.5423 66.7799C20.5573 66.7799 20.5733 66.7909 20.5883 66.7939C20.6229 66.8001 20.6581 66.8031 20.6933 66.8029H24.4543C24.5967 66.8029 24.7333 66.7464 24.834 66.6457C24.9347 66.5449 24.9913 66.4084 24.9913 66.2659C24.9913 66.1235 24.9347 65.9869 24.834 65.8862C24.7333 65.7855 24.5967 65.7289 24.4543 65.7289H21.9903L26.6523 60.7699C26.7022 60.72 26.7417 60.6608 26.7687 60.5956C26.7958 60.5304 26.8097 60.4605 26.8097 60.3899C26.8097 60.3194 26.7958 60.2495 26.7687 60.1843C26.7417 60.1191 26.7022 60.0598 26.6523 60.0099C26.6024 59.96 26.5431 59.9205 26.4779 59.8934C26.4127 59.8664 26.3428 59.8525 26.2723 59.8525C26.2017 59.8525 26.1318 59.8664 26.0666 59.8934C26.0014 59.9205 25.9422 59.96 25.8923 60.0099L21.2303 64.9689V62.5079Z" fill="#D7D7D7"/>
</svg>
