<?xml version="1.0" encoding="UTF-8"?><svg id="Empty_screen_image" xmlns="http://www.w3.org/2000/svg" viewBox="0 0 610.41 272.75"><defs><style>.cls-1{fill:none;stroke:#515165;stroke-dasharray:0 0 7 8;stroke-miterlimit:10;stroke-width:2px;}.cls-2{fill:#52526c;}.cls-2,.cls-3,.cls-4,.cls-5,.cls-6,.cls-7,.cls-8,.cls-9,.cls-10,.cls-11,.cls-12,.cls-13,.cls-14,.cls-15,.cls-16{stroke-width:0px;}.cls-3{fill:#5c5a72;}.cls-4{fill:#2a2b3a;}.cls-5{fill:#63637f;}.cls-6{fill:#575b9f;}.cls-7{fill:#19ad1c;}.cls-8{fill:#363647;}.cls-9{fill:#373480;}.cls-10{fill:#d9935c;}.cls-11{fill:#73739a;}.cls-12{fill:#7c7c93;}.cls-13{fill:#fff;}.cls-14{fill:#e49963;}.cls-15{fill:#ffb27d;}.cls-16{fill:#e8945b;}</style></defs><path id="Path_4715" class="cls-1" d="m589.53,271.42s51.04-95.66-9.04-141.32c-33.52-25.47-72.76-6.4-106.75-74.78-19.79-39.79-89.01-51.87-123.63,2.46-34.62,54.33-48.52,88.85-94.8,70.16-27.55-11.13-39.43-46.21-82.3-38.88-49.56,8.48-42.92,59.87-79.44,50.92C23.15,122.73-29.02,221.33,19.65,272.1l569.87-.68Z"/><g id="Group_1121"><path id="Path_4716" class="cls-8" d="m349.87,232.17c-3.62-.75-8.03-4.22-7.86-5.36.14-.89,4.71.59,7.86,1.56v-14.62c-.76-.2-1.25-.28-1.25-.28,0,0-9.94,7.39-11.88,6.94s7.26-7.98,7.26-7.98c-3.46-1.66-14.22-.62-14.22-.62,0,0-3.58,11.56-5.35,10.65s3.69-10.07,3.69-10.07c-3.86-.23-8.58,2.63-8.58,2.63-6.48,5.11.43,13.16.43,13.16-1.17,2.93-3.03,5.54-5.42,7.6-3.65,2.98-5.91,7.33-6.24,12.03l1.06.1s1.68-7.19,4.73-10.59l.5-.51c.5-.46.85-.81,1.08-1.06,1.52-1.46,3.62-3.32,4.63-3.5-.04-.17-.05-.34-.04-.51.01.16.03.33.04.51.35,4.07,8.24,7.62,13.1,8.35s3.35-1.26,1.68-4.22-6.97-4.28-8.18-5.65,1.29-1.37,4.22-.03,3.33,4.9,8.02,7.15c3.6,1.72,8.59-2.46,10.72-4.5v-1.18Z"/><g id="Group_1120"><g id="Group_1119"><g id="Group_1118"><path id="Path_4717" class="cls-5" d="m272.62,193.89c2.56,3.62,6.24,8.48,7.7,8.66,2.34.29-4.83-11.85-4.83-11.85,4.54-.44,16.1,5.12,16.1,5.12,0,0-.73,14.34,1.61,14.05s0-12.73,0-12.73c4.39,1.32,8.49,6.44,8.49,6.44,5.12,8.34-5.85,14.49-5.85,14.49l-1.79,3.84c-.08.17-.16.35-.25.54,0,0,0,0,0,0-2.05,4.39-12.29,5.12-18,3.95-1.77-.36-2.75-.77-3.17-1.23-.34-.38-.34-.95,0-1.32.89-1.06,1.91-2.02,3.02-2.84,3.07-2.61,9.51-1.92,11.42-2.95s-.88-2.05-4.68-1.76c-3.33.26-5.21,3.21-9.75,4.33v-26.74Z"/></g></g></g><path id="Path_4718" class="cls-5" d="m298.77,228.74c-1.82-3.27-2.82-6.94-2.93-10.68-6.64-7.4-23.47-16.16-23.47-16.16,20.81,12.99,21.42,20.55,21.42,20.55,1.05.61,2.63,3.54,3.73,5.79.16.38.4.91.77,1.63.15.33.27.59.35.78,2.01,5.03.95,13.73.95,13.73l1.22.33c1.55-5.37.81-11.15-2.04-15.96"/><path id="Path_4719" class="cls-5" d="m349.87,212.94c-1.01.42-2.11.59-3.2.5-8.1-.77-10.61-5.79-15.62-6.17s-8.68.96-6.18,2.32,11,.44,15.05,3.89,7.33,5.57-.19,7.11-21.03.58-23.73-5.21l-2.7-5.79s-14.47-8.1-7.72-19.1c0,0,5.4-6.75,11.19-8.49,0,0-3.09,16.4,0,16.78s2.12-18.52,2.12-18.52c0,0,15.24-7.33,21.22-6.75,0,0-9.45,16.01-6.36,15.63s13.69-16.59,13.69-16.59c0,0,.95-.18,2.42-.3v21.98c-2.88.28-5.08.71-4.93,1.47.17.85,2.21,1.93,4.93,2.71v14.53Z"/><path id="Path_4720" class="cls-5" d="m358.44,181.8s-40.51,13.12-45.14,27.78c-.14,4.94-1.46,9.77-3.86,14.08,0,0-6.25,9.49-2.69,21.04l1.61-.43s-1.41-11.46,1.25-18.09c.11-.24.27-.59.46-1.02.48-.95.81-1.65,1.02-2.15,1.44-2.96,3.53-6.82,4.91-7.63,0,0-9.07-12.73,42.44-33.57"/><path id="Path_4721" class="cls-5" d="m284.47,241.4c0,15.65,12.69,28.34,28.34,28.34s28.34-12.69,28.34-28.34h-56.68Z"/><path id="Path_4722" class="cls-5" d="m338.05,268h-50.47c-1.93,0-3.5,1.57-3.5,3.5h57.46c0-1.93-1.57-3.5-3.5-3.5"/><path id="Path_4723" class="cls-8" d="m341.37,242.27h-57.39c-.24,0-.44-.19-.44-.43,0-.24.19-.44.43-.44h57.39c.24,0,.43.2.43.44,0,.24-.19.43-.43.43"/></g><path id="Path_4724" class="cls-5" d="m356.15,271.5h110.22c3.47,0,6.27-2.82,6.28-6.28V44.79c0-3.47-2.82-6.27-6.28-6.28h-110.22c-3.47,0-6.27,2.82-6.28,6.28v220.42c0,3.47,2.82,6.27,6.28,6.28"/><path id="Path_4725" class="cls-8" d="m393.27,49.81h31.92c.69,0,1.24-.56,1.24-1.24,0-.68-.56-1.24-1.24-1.24h-31.92c-.69,0-1.24.56-1.24,1.24,0,.68.56,1.24,1.24,1.24"/><path id="Path_4726" class="cls-8" d="m430.86,49.81h0c.69,0,1.24-.56,1.24-1.24s-.56-1.24-1.24-1.24c-.69,0-1.24.56-1.24,1.24h0c0,.69.56,1.24,1.24,1.24"/><path id="Path_4727" class="cls-8" d="m417.75,258.62c0-4.42-3.59-8.01-8.01-8.01s-8.01,3.59-8.01,8.01,3.59,8.01,8.01,8.01,8.01-3.59,8.01-8.01h0"/><rect id="Rectangle_429" class="cls-8" x="360.35" y="56.98" width="102.09" height="188.45"/><path id="Path_4728" class="cls-5" d="m168.18,62.63h98.81c3.11,0,5.62,2.53,5.63,5.63v197.6c0,3.11-2.53,5.62-5.63,5.63h-98.81c-3.11,0-5.62-2.53-5.63-5.63V68.26c0-3.11,2.53-5.62,5.63-5.63"/><rect id="Rectangle_432" class="cls-8" x="166.48" y="79.33" width="101.97" height="169.25"/><path id="Path_4729" class="cls-8" d="m205.1,70.53h28.62c.61,0,1.11.5,1.11,1.11s-.5,1.11-1.11,1.11h-28.62c-.61,0-1.11-.5-1.11-1.11s.5-1.11,1.11-1.11"/><path id="Path_4730" class="cls-8" d="m200.02,70.53c.61,0,1.11.5,1.11,1.11s-.5,1.11-1.11,1.11c-.61,0-1.11-.5-1.11-1.11h0c0-.61.5-1.11,1.11-1.11"/><path id="Path_4731" class="cls-8" d="m217.47,255.73c3.15,0,5.7,2.55,5.7,5.7,0,3.15-2.55,5.7-5.7,5.7s-5.7-2.55-5.7-5.7h0c0-3.15,2.55-5.7,5.7-5.7"/><path id="Path_4732" class="cls-8" d="m57.96,271.36s-9.2.33-10.56,0c-.06-.26-1.76-10.99-1.76-10.99l-1.41-9.92c-.12-.82.45-1.59,1.27-1.71.44-.07.89.07,1.22.36.61.59,1.06,1.32,1.3,2.13,1.16,3.5,4.57,9.13,9.64,10.6,5.33,1.55.31,9.54.31,9.54"/><path id="Path_4733" class="cls-14" d="m105.96,221.61l-.9.32c-1.54-2.4-4.55-3.4-7.21-2.39,0,0-1.93.81-.79,1.87s.86.51,2.45,2.03,3.75,2.29,5.24,1.77l1.65-.58-.44-3.03Z"/><path id="Path_4734" class="cls-8" d="m146.77,255.17s-33.76-25.8-43.37-26.08-40.76,42.36-40.76,42.36h11.67s20.56-10.94,27.79-21.34c.56-.8,1.66-1,2.47-.44.2.14.36.31.49.52,3.74,5.97,13.51,20.63,19.83,21.26,6.79.68,21.88-16.28,21.88-16.28"/><path id="Path_4735" class="cls-15" d="m143.53,184.97s.21,1.69.49,3.78c.36,2.71.85,6.08,1.17,7.13l10.16,2.57.75-7.39c-1.71-3.88-2.57-8.08-2.53-12.32l-10.04,6.23Z"/><path id="Path_4736" class="cls-3" d="m152.37,200.34l-14.44,17.68-5.05,6.18s-9.04,1.69-13.79,2.11c-3.43.3-14.36-1.1-14.36-1.1l.31-3.29c3.25-1.41,6.6-2.6,10.01-3.56,3.29-.69,11.6-2.56,11.6-2.56,3.14-1.14,15.08-16.57,15.08-16.57l10.63,1.11Z"/><path id="Path_4737" class="cls-5" d="m161.79,263.49l-29.52-2.41s-.08-.59-.22-1.59c-.04-.32-.07-.64-.08-.96-.07-2.95,1.09-6.92,1.59-10.83.43-2.44.29-4.96-.42-7.34-.91-2.54-1.33-7.38-1.51-11.97-.23-5.75-.1-11.13-.1-11.16-.16-3.97.53-7.92,2.03-11.6,2.88-7.63,8.25-11.95,10.77-14.51,0,0,3.08.76,11.09-1.64.24-.07.92.94,1.23,1.52,0,0,3.47,4.39,4.89,15.08,1.28,9.57.24,57.4.24,57.4"/><path id="Path_4738" class="cls-3" d="m154.4,210.47c-.06,1.34-11.94,39.16-10.48,41.95,7.04,13.49-10.71,7.41-11.68,3.93.33-2.58,1.69-13.79.9-16-.91-2.54-1.33-7.38-1.51-11.97.36-1.79,1.01-3.5,1.93-5.08,4.41-.69,21.28-23.25,20.83-12.84"/><path id="Path_4739" class="cls-9" d="m95.35,217.85l3.66-2.51s.06-.04.1-.05h0l.69-.28,3.37,10.64-2.95,2.39-.53.23h0c-.29.08-.58-.08-.67-.37l-3.81-9.35c-.12-.24-.05-.52.15-.69"/><path id="Path_4740" class="cls-6" d="m103.93,225.01l-3.49,2.92c-.24.15-.56.08-.71-.16-.03-.05-.05-.1-.06-.15l-3.81-9.35c-.12-.24-.06-.52.15-.69l3.66-2.52c.26-.13.57-.03.71.23.02.03.03.07.04.1l3.65,8.94c.11.23.06.49-.12.67"/><path id="Path_4741" class="cls-8" d="m103.36,223.86l-3.44,2.88-3.46-8.48,3.61-2.48,3.3,8.07Z"/><path id="Path_4742" class="cls-9" d="m102,225.81c-.05-.15,0-.33.15-.41.13-.05.28.04.33.21.05.15,0,.33-.15.41-.13.05-.28-.04-.33-.21"/><path id="Path_4743" class="cls-8" d="m96.98,218.43l2.93-2.07,3.04,7.28-2.98,2.33-2.98-7.53Z"/><path id="Path_4744" class="cls-8" d="m97.75,218.87l2.05-1.45,2.13,5.1-2.09,1.63-2.09-5.28Z"/><path id="Path_4745" class="cls-14" d="m105.53,226.76l-1.86-.06c-1.11-2.23-3.82-3.14-6.05-2.04-.01,0-.02.01-.04.02,0,0-1.7.89-.76,1.88s.72.46,2.01,1.89,3.11,2.08,4.42,1.5l1.45-.65.83-2.54Z"/><path id="Path_4746" class="cls-5" d="m151.65,191.19s-7.25,3.06-11.01,9.6c-2.51,4.36-6.83,11.77-9.43,16.23-1.39,2.38-3.7,4.06-6.39,4.66l-8.8,1.93-12.35,3.09c-.2.43-.28.91-.22,1.38-.03.62.33,1.2.9,1.46,0,0,11.54,2.78,15.64,3.09,10.12.76,14.91-.57,16.4-1.11.33-.12.63-.3.9-.52,1.55-1.26,7.49-6.24,10.62-11,3.04-4.63,11.44-16.66,11.44-16.66l-7.7-12.15Z"/><path id="Path_4747" class="cls-3" d="m161.99,252.07s2.91,19.39-6.02,19.39H57.72c-1.69-1.27-2.75-3.21-2.9-5.32-.2-3.7.97-5.01.97-5.01,0,0,35.17-1.22,42.32-3.62,35.79-11.99,63.89-5.43,63.89-5.43"/><path id="Path_4748" class="cls-16" d="m143.53,184.97s.21,1.69.49,3.78c9.39-2.74,9.55-10.01,9.55-10.01l-10.04,6.23Z"/><path id="Path_4749" class="cls-15" d="m142.05,185.51s11.41.34,11.51-6.77,1.64-11.85-5.64-12.37-8.73,2.18-9.34,4.54.51,14.33,3.47,14.6"/><path id="Path_4750" class="cls-4" d="m153.77,181.52s-1.21-.2-1.01-1.86.19-3.83-1.16-3.43-1.42,1.49-1.97.85-.57-3.29-4.58-3.48-5.65,1.21-7.52.39-1.97-3.65-1.97-3.65c.3.57.77,1.03,1.33,1.33,0,0-3.12-4.26.49-7.18s7.29-1.01,9.38-.88c4.6.28,7.57.55,9.08,3.58s.88,11.42-2.07,14.33"/><path id="Path_4751" class="cls-8" d="m430.93,15.44l30.61,8.98-18.7-17.14-1.71,4.38-7.8.28-2.4,3.5Z"/><path id="Path_4752" class="cls-13" d="m461.54,24.42l-24.07-17.18-25.31-4.97,49.38,22.15Z"/><path id="Path_4753" class="cls-13" d="m442.85,7.28l18.7,17.14L448.68,0l-5.83,7.28Z"/><path id="Path_4754" class="cls-4" d="m516.64,61.93c2.02-1.24,5.25.24,5.25.24-1.12-1.57-5.19-1.06-5.19-1.06,8.11-1.73,9.81,3.46,9.95,3.95,5.89-5.31,15.31,6.01,15.31,6.01l-13.52,17.92s-1.23-2.85-2.86-1.96c-2.54,1.39-7.45-4.23-5.88-11.62.16-.74.36-1.48.6-2.2-.53.25-1.1.39-1.69.42-1.48,0-3.71-3.77-4.01-5.04s.03-5.43,2.05-6.67"/><path id="Path_4755" class="cls-15" d="m555.31,139.95c8.56-3.15,16.81-17.81,16.81-17.81l-2.7-1.89c-2.25,3.29-12.37,9.61-12.37,9.61-.23-2.77-.57-5.29-.98-7.57-2.81-15.49-9.24-20.07-10.96-21.05-.14-.08-.29-.16-.44-.22,0,0,0,.11.02.33.02.47.08,1.4.17,2.69.67,9.59,3.29,38.54,10.45,35.9"/><path id="Path_4756" class="cls-15" d="m513.92,155.77c4.23-9.49,6.25-12.17,6.32-15.15.06-2.36-1.11-4.91-3.37-11.15-.53-1.46-.9-2.98-1.13-4.52-1.79-12.04,5.17-25.06,9.5-25.94,1.2-.32,3.25-4.67,3.22-11.67l.54.11,9.11,1.8s-.21,2.87-.21,5.57c0,2.25.13,4.39.64,4.65.66.06,1.04.1,1.04.1,0,0,7.6,10.55,8.24,20.36s-6.08,14.08.05,33.69c6.26,20.03-36.3,7.4-33.96,2.16"/><path id="Path_4757" class="cls-16" d="m538.13,89.24s-.21,2.87-.21,5.57c-5.1-.14-7.79-4.8-8.9-7.37l9.11,1.8Z"/><path id="Path_4758" class="cls-8" d="m528.07,86.44c-1.51-2.42-2.63-5.06-3.31-7.83-.46-2.58.85-12.13,10.46-10.76,1.93.27,3.78.97,5.41,2.05,2.08,1.41,5.09,4.45,1.73,12.78l-.87,2.82-13.41.94Z"/><path id="Path_4759" class="cls-15" d="m539.83,91.8s-12.06.2-12.07-7.32-1.57-12.55,6.13-12.99,9.2,2.42,9.81,4.93-.74,15.14-3.87,15.38"/><path id="Path_4760" class="cls-5" d="m524.6,246.8c1.85,7.34,4.4,14.48,7.6,21.33l3.98-.28c-1.32-7.2-1.94-14.5-1.84-21.82-.03-9.86,1.53-19.66,4.63-29.02,11.9-34,9.98-58.74,9.98-58.74l-22.38,2.62-1.04.12c-.09,10.28-.36,24.24-.59,35.15-.21,9.82-.39,17.17-.39,17.17-4.3,9.27-2.74,22.35.05,33.46"/><path id="Path_4761" class="cls-5" d="m511.76,244.88c.65,7.95,3.02,15.67,6.95,22.62l1.9,1.38s1.8-9.68,3.07-21.19c1.21-10.94,2.88-22.52,4.76-26.06,7.47-14.02,9.71-66.94,9.71-66.94l-22.7-1.13c-2.28,3.84-3.28,10.13-3.51,17.29-.6,18.06,3.65,41.61,4.28,45.02,0,0,0,0,0,0,.04.26-.02.53-.15.76-4.51,8.94-5.17,19.17-4.32,28.24"/><path id="Path_4762" class="cls-4" d="m531.01,81.42c-5.07,1.3-7.27-.05-7.27-.05,2.5-2.2,4.16-5.19,4.7-8.48,0,0,2.23-7.03,10.85-1.74.79-.68,2.2-1.17,4.06,1.09,2.8,3.39.31,9.38.31,9.38-1.15.13-1.42-3.8-2.02-5.72-.59-1.36-1.49-2.56-2.63-3.51-.24.89-2.67,9.31-8.73,12.11,1.87-1.74,3.5-3.73,4.84-5.91-1.06,1.33-2.48,2.31-4.1,2.83"/><path id="Path_4763" class="cls-15" d="m496.24,168.56c.93-.84,1.65-1.88,2.12-3.05,2.81-6.98,6.04-20.53,7.11-23.02.39-.91,1.14-5.19,2.11-10.71,1.76-9.9,4.25-23.79,6.76-29.29.54-.81,1.35-1.41,2.29-1.69,3.41-1.42,9.23-2.02,9.23-2.02l-3.04,13.17-.89,3.86s-2.71,9.54-4.8,17.34c-1.01,3.77-1.88,7.12-2.24,8.8-1.09,5.16-13.03,24.98-13.03,24.98h0s-.36.24-.78,1.45-3.8,7.6-5.25,7.6-1.75-2.17-2.05-3.56,1.33-3.14,2.47-3.86"/><path id="Path_4764" class="cls-15" d="m569.42,120.25c0-.37-.31-5.76.65-6.89s2.92-2.74,3.53-2.69,3.02,3.25,2.3,5.7-3.78,5.77-3.78,5.77l-2.7-1.89Z"/><path id="Path_4765" class="cls-5" d="m565.02,113.66l5.58,1.67c.19.06.38-.05.44-.23,0,0,0,0,0,0l3.19-10.65c.06-.19-.05-.38-.23-.44,0,0,0,0,0,0l-5.58-1.67c-.19-.06-.38.05-.44.23l-3.19,10.65c-.06.19.05.38.23.44,0,0,0,0,0,0"/><path id="Path_4766" class="cls-8" d="m566.47,114.1l5.06,1.52c.33.1.67-.09.77-.42h0s3.04-10.13,3.04-10.13c.1-.33-.09-.67-.41-.77,0,0,0,0,0,0l-5.07-1.52c-.33-.1-.67.09-.77.42h0s-3.04,10.13-3.04,10.13c-.1.33.09.67.42.77"/><path id="Path_4767" class="cls-15" d="m511.76,244.88c.65,7.95,3.02,15.67,6.95,22.62l1.94,1.76s1.76-10.06,3.04-21.57c-1.34.1-7.25.31-11.93-2.81"/><path id="Path_4768" class="cls-12" d="m517.07,133.56c-3.61.86-7.41.3-10.63-1.56,2.04-9.98,4.95-23.96,7.86-29.5.18-.3.42-.56.72-.75l-.03-.04c2.73-1.98,8.3-2.59,8.3-2.59,0,0,1.72,7.62,2.8,8.62s16.84,2.62,17.2.82c.35-1.73-4.09-8.45-4.43-9.05.24,0,.48.02.72.05,1.8.24,3.06.42,3.98.57,1.08.15,2.1.56,2.99,1.19,2.12,1.61,7.1,6.54,9.05,18.42,0,0-2.46,3.38-5.94,4.37-.09.03-.18.05-.27.07.6,10.07,4.31,26.83,2.98,36.52-1.28,9.32-20.89,6.94-24.78,6.07-2.67-.59-4.73-3.4-6.2-8.42-.49,3.5-1.58,7.61-4.03,7.86-4.01.41-5.67-.28-6.15-1.8-.15-.59-.2-1.21-.14-1.81.26-5.23,4.24-17.57,6-29.06"/><path id="Path_4769" class="cls-10" d="m524.61,246.8c1.85,7.33,4.4,14.48,7.6,21.33l3.98-.28c-1.32-7.2-1.94-14.5-1.84-21.82-1.35.68-4.14,1.37-9.74.77"/><path id="Path_4770" class="cls-8" d="m529.92,271.47h2.54c.85-.13,1.48-.38,2.35-.49.73-.17,1.49.01,2.06.49,0,0,.02.02.02.03h10.79c.27-.39.01-1.29-.24-1.95-.17-.45-.55-.79-1.01-.92-2.01-.34-3.89-1.2-5.47-2.5-1.16-1.05-5.61-3.86-5.61-3.86h-.02c-.1,0-.56.14-2.59,1.85-1.05.88-2.83-1.25-2.83-1.25-.24.22-.44.49-.58.79-.25.51-.33,1.09-.23,1.66,0,1.37-.26,2.73-.77,4-.25.74-.46,1.27-.46,1.27,0,0-.12.61,2.06.88"/><path id="Path_4771" class="cls-8" d="m516.36,271.47h2.54c.85-.13,1.48-.38,2.35-.49.72-.17,1.49.01,2.06.49,0,0,.02.02.02.03h10.79c.27-.39.01-1.29-.25-1.95-.17-.45-.55-.79-1.01-.92-2.01-.34-3.89-1.2-5.47-2.5-1.16-1.05-5.61-3.86-5.61-3.86h-.02c-.1,0-.56.14-2.59,1.85-1.05.88-2.83-1.25-2.83-1.25-.24.22-.44.49-.58.79-.25.51-.33,1.09-.23,1.66,0,1.37-.26,2.73-.77,4-.25.74-.46,1.27-.46,1.27,0,0-.12.61,2.06.88"/><path id="Path_4772" class="cls-3" d="m511.08,162.61c2.69-.9,6.15-3.29,10.3-8.66,10.99-14.2.93-30.89-.42-31.2s-3.89,10.8-3.89,10.8c-1.76,11.49-5.74,23.82-6,29.06"/><path id="Path_4773" class="cls-15" d="m574.08,111.03s-1.76-1.6-3.2-.09.54,4.21,2,4.86c.68.27,1.32.61,1.93,1.01l-.73-5.78Z"/><path id="Path_4774" class="cls-13" d="m537.47,87.33s.21.89,2.41.75c0,0,1.85-.11,1.79-1.09-1.39-.4-2.89-.28-4.2.34"/><path id="Path_4775" class="cls-4" d="m246.88,180.61h-58.82c-2.18,0-3.94-1.76-3.94-3.94h0v-36.39c0-2.18,1.76-3.94,3.94-3.94h58.82c2.18,0,3.94,1.76,3.94,3.94h0v36.4c0,2.18-1.76,3.94-3.94,3.94h0"/><path id="Path_4776" class="cls-4" d="m206.02,124.17c-6.05.76-10.34,6.27-9.59,12.32.76,6.05,6.27,10.34,12.33,9.59,6.05-.76,10.34-6.27,9.59-12.32-.76-6.05-6.27-10.34-12.32-9.59,0,0,0,0,0,0"/><path id="Path_4777" class="cls-13" d="m205.06,124.29c-6.05.76-10.34,6.27-9.59,12.32.76,6.05,6.27,10.34,12.33,9.59,6.05-.76,10.34-6.27,9.59-12.32-.76-6.05-6.27-10.34-12.32-9.59,0,0,0,0,0,0"/><path id="Path_4778" class="cls-7" d="m207.7,145.35c-5.51.69-10.54-3.22-11.23-8.73s3.22-10.54,8.73-11.23c5.51-.69,10.54,3.22,11.23,8.73.68,5.51-3.22,10.53-8.73,11.23m-2.42-19.37c-5.18.65-8.86,5.37-8.21,10.56.65,5.18,5.37,8.86,10.56,8.21,5.18-.65,8.86-5.37,8.21-10.56,0,0,0,0,0,0-.65-5.18-5.38-8.85-10.56-8.21"/><path id="Path_4779" class="cls-4" d="m220.38,131.5c-6.05.76-10.34,6.27-9.59,12.32.76,6.05,6.27,10.34,12.33,9.59,6.05-.76,10.34-6.27,9.59-12.32-.76-6.05-6.27-10.34-12.33-9.59"/><path id="Path_4780" class="cls-13" d="m219.43,131.62c-6.05.76-10.34,6.27-9.59,12.32.76,6.05,6.27,10.34,12.33,9.59,6.05-.76,10.34-6.27,9.59-12.32-.76-6.05-6.27-10.34-12.32-9.59,0,0,0,0,0,0"/><path id="Path_4781" class="cls-7" d="m222.06,152.69c-5.51.69-10.54-3.22-11.23-8.73s3.22-10.54,8.73-11.23c5.51-.69,10.54,3.22,11.23,8.73.68,5.51-3.22,10.53-8.73,11.23m-2.42-19.37c-5.18.65-8.86,5.37-8.21,10.56.65,5.18,5.37,8.86,10.56,8.21,5.18-.65,8.86-5.37,8.21-10.56,0,0,0,0,0,0-.65-5.18-5.38-8.85-10.56-8.21"/><path id="Path_4782" class="cls-5" d="m242.52,184.08h-54.46c-2.17,0-3.94-1.76-3.94-3.94h0v-36.4c0-2.17,1.76-3.94,3.94-3.94h54.46c2.17,0,3.94,1.76,3.94,3.94h0v36.4c0,2.17-1.76,3.94-3.94,3.94h0"/><path id="Path_4783" class="cls-2" d="m248.31,167.99h-19.34c-3.34,0-6.05-2.71-6.05-6.05s2.71-6.05,6.05-6.05h19.34v12.1Z"/><path id="Path_4784" class="cls-11" d="m233.71,161.94c0,2.62-2.12,4.74-4.74,4.74s-4.74-2.12-4.74-4.74c0-2.62,2.12-4.74,4.74-4.74h0c2.62,0,4.74,2.12,4.74,4.74"/><path class="cls-5" d="m410.84,176.15c-8.01,0-14.51,6.5-14.51,14.51s6.5,14.51,14.51,14.51,14.51-6.5,14.51-14.51-6.5-14.51-14.51-14.51Zm8.45,10.73l-9.52,9.52c-.26.26-.61.4-.98.4h-.69c-.37,0-.72-.14-.98-.4l-4.74-4.74c-.54-.54-.54-1.41,0-1.95.54-.54,1.41-.54,1.95,0l2.82,2.82c.54.54,1.4.54,1.94.01l7.8-7.62c.26-.25.6-.39.97-.39h.45c.76,0,1.38.62,1.38,1.38,0,.37-.15.72-.4.98h0Z"/><path class="cls-5" d="m130.82,113.02c-.41.05-.83.1-1.23.15-.47.06-.89-.27-.95-.74-.06-.47.27-.89.74-.95h0c.73-.09,1.48-.18,2.24-.29h0c.47-.06.89.27.95.73s-.27.89-.73.95l-1.02.13"/><path class="cls-5" d="m134.08,112.58c-.46.06-.89-.26-.96-.73-.06-.46.26-.89.73-.96.73-.11,1.48-.22,2.23-.33.46-.07.9.25.97.71.07.46-.25.9-.71.97h0c-.76.12-1.51.23-2.25.34h-.01"/><path class="cls-5" d="m127.34,113.43h-.02c-.77.08-1.53.16-2.27.22-.47.04-.88-.3-.92-.77s.3-.88.77-.92h0c.73-.07,1.48-.14,2.24-.22.47-.06.89.28.94.74s-.28.89-.74.94h0"/><path class="cls-5" d="m138.57,111.88c-.47.06-.89-.27-.95-.74-.06-.45.25-.87.7-.94.73-.12,1.48-.24,2.23-.37.46-.08.9.23.98.69s-.23.9-.69.98c-.76.13-1.5.25-2.24.38h-.03"/><path class="cls-5" d="m122.83,113.83h-.05c-.78.06-1.55.11-2.28.14-.47.02-.87-.34-.89-.81s.34-.87.81-.89h0c.72-.03,1.47-.08,2.24-.13.47-.03.87.32.91.79.03.45-.29.85-.74.9"/><path class="cls-5" d="m143.03,111.11c-.46.06-.89-.27-.95-.73-.06-.45.25-.87.69-.95.73-.13,1.47-.27,2.22-.4.46-.1.91.2,1.01.66.1.46-.2.91-.66,1.01-.01,0-.03,0-.04,0-.75.14-1.5.28-2.23.41h-.04"/><path class="cls-5" d="m118.3,114.04s-.06,0-.1,0c-.8.01-1.57.01-2.3,0-.47-.01-.84-.4-.83-.87s.4-.84.87-.83c.71.02,1.46.02,2.23,0,.47-.01.86.35.87.82.01.44-.31.82-.75.87"/><path class="cls-5" d="m147.48,110.29c-.47.06-.89-.27-.95-.74-.06-.44.24-.86.68-.94.73-.14,1.47-.28,2.22-.43.46-.09.91.21,1,.67.09.46-.21.91-.67,1h0c-.75.15-1.49.29-2.23.43h-.05"/><path class="cls-5" d="m151.93,109.41c-.46.06-.89-.26-.96-.73-.06-.45.24-.86.68-.95.73-.15,1.47-.3,2.22-.45.46-.1.91.2,1,.66.1.46-.2.91-.66,1-.75.16-1.49.31-2.22.46h-.06"/><path class="cls-5" d="m156.37,108.49c-.46.06-.89-.26-.95-.73-.06-.44.23-.85.67-.94.73-.16,1.47-.31,2.21-.48.46-.1.91.19,1.01.65.1.46-.19.91-.65,1.01h0c-.74.16-1.48.32-2.22.48h-.07"/><path class="cls-5" d="m113.77,113.93c-.06,0-.11,0-.17,0-.82-.06-1.6-.15-2.31-.25-.46-.07-.78-.5-.71-.97s.5-.78.97-.71c.67.1,1.41.18,2.19.24.47.03.82.44.79.91-.03.4-.34.73-.74.78"/><path class="cls-5" d="m160.8,107.52c-.46.06-.89-.26-.96-.73-.06-.44.23-.86.67-.95.73-.16,1.47-.33,2.21-.49.46-.1.91.18,1.01.64.1.46-.18.91-.64,1.01h0c-.74.17-1.48.33-2.22.49-.03,0-.05.01-.08.01"/><path class="cls-5" d="m165.22,106.53c-.46.07-.9-.24-.97-.7-.07-.45.22-.88.67-.97.73-.17,1.47-.34,2.21-.51.46-.11.91.18,1.02.64.11.46-.18.91-.64,1.02h0c-.74.17-1.48.34-2.21.51-.03,0-.05.01-.08.02"/><path class="cls-5" d="m169.63,105.51c-.47.06-.89-.27-.95-.74-.05-.43.23-.83.65-.93.73-.17,1.47-.35,2.2-.52.46-.11.91.17,1.02.63.11.46-.17.91-.63,1.02-.74.18-1.47.35-2.21.52-.03,0-.06.01-.09.02"/><path class="cls-5" d="m109.3,113.22c-.11.01-.22,0-.33-.02-.79-.21-1.56-.5-2.28-.88-.41-.22-.57-.74-.35-1.15s.74-.57,1.15-.35h0c.62.32,1.27.56,1.94.74.45.12.72.59.59,1.04-.09.33-.37.57-.71.62"/><path class="cls-5" d="m174.04,104.46c-.46.06-.89-.27-.95-.73-.06-.43.22-.84.65-.94.73-.18,1.47-.35,2.2-.53.46-.1.91.18,1.02.64.1.45-.17.89-.62,1.01l-2.2.54s-.06.01-.09.02"/><path class="cls-5" d="m178.45,103.38c-.46.06-.89-.27-.95-.73-.06-.43.22-.83.64-.94l2.2-.55c.46-.11.92.16,1.03.62.11.46-.16.92-.62,1.03h0l-2.2.55s-.07.01-.1.02"/><path class="cls-5" d="m182.85,102.28c-.46.06-.89-.27-.95-.73-.06-.43.22-.83.64-.93l2.2-.55c.45-.12.92.16,1.03.61.12.45-.16.92-.61,1.03h0c-.73.19-1.47.37-2.2.56-.03,0-.07.01-.1.02"/><path class="cls-5" d="m187.24,101.17c-.46.06-.89-.27-.95-.73-.06-.43.22-.83.63-.93l2.19-.57c.45-.12.92.16,1.03.61.12.45-.16.92-.61,1.03h0l-2.2.57s-.07.02-.1.02"/><path class="cls-5" d="m191.62,100.03c-.47.06-.89-.27-.95-.73-.05-.42.22-.82.63-.93l2.19-.57c.45-.12.92.15,1.04.61.12.45-.15.92-.61,1.04l-2.19.57s-.07.02-.11.02"/><path class="cls-5" d="m105.47,110.98c-.31.04-.62-.09-.8-.34-.05-.07-.1-.14-.14-.21-.4-.62-.74-1.28-1.02-1.97-.17-.44.04-.93.48-1.1s.93.04,1.1.48c.24.59.53,1.15.87,1.68.03.04.06.08.09.13.28.38.19.91-.19,1.19-.11.08-.25.14-.39.15"/><path class="cls-5" d="m196,98.88c-.46.06-.89-.26-.96-.73-.06-.43.21-.83.63-.94l2.19-.58c.45-.12.92.15,1.04.6s-.15.92-.6,1.04h0l-2.19.58s-.07.02-.11.02"/><path class="cls-5" d="m200.38,97.71c-.46.06-.89-.26-.96-.73-.06-.43.21-.83.63-.94l2.19-.59c.45-.12.92.14,1.04.6.12.45-.14.92-.6,1.04h0l-2.2.59s-.08.02-.11.02"/><path class="cls-5" d="m204.77,96.54c-.46.06-.89-.27-.95-.73-.06-.42.21-.82.62-.93l2.18-.6c.45-.12.92.14,1.04.59.12.45-.14.92-.59,1.04l-2.19.6s-.08.02-.12.02"/><path class="cls-5" d="m209.14,95.34c-.46.06-.89-.27-.95-.73-.05-.42.21-.82.62-.93l2.18-.6c.45-.13.92.13,1.05.58.13.45-.13.92-.58,1.05,0,0-.02,0-.02,0l-2.18.61s-.08.02-.12.02"/><path class="cls-5" d="m213.51,94.13c-.47.06-.89-.27-.95-.74-.05-.42.21-.81.61-.92l2.18-.61c.45-.13.92.14,1.05.59s-.14.92-.59,1.05h0l-2.18.61s-.08.02-.12.02"/><path class="cls-5" d="m217.87,92.9c-.46.06-.89-.26-.95-.73-.06-.42.21-.82.62-.93l2.18-.62c.45-.13.92.13,1.05.58.13.45-.13.92-.59,1.05h0l-2.18.62s-.08.02-.12.02"/><path class="cls-5" d="m222.23,91.67c-.47.06-.89-.27-.95-.74-.05-.41.21-.8.61-.92l2.18-.62c.45-.13.92.13,1.05.58.13.45-.13.92-.58,1.05h0l-2.18.62s-.08.02-.13.03"/><path class="cls-5" d="m103.88,106.81h-.03c-.47.04-.88-.3-.92-.77h0c-.08-.84-.02-1.68.17-2.49.11-.46.56-.74,1.02-.64s.74.56.64,1.02h0c-.15.64-.19,1.3-.13,1.96.04.45-.28.86-.74.92"/><path class="cls-5" d="m226.59,90.4c-.47.06-.89-.27-.95-.74-.05-.41.21-.81.61-.92l2.18-.63c.45-.13.92.13,1.05.58.13.45-.13.92-.58,1.05l-2.18.63s-.08.02-.13.03"/><path class="cls-5" d="m230.94,89.14c-.46.06-.89-.27-.95-.73-.05-.42.2-.81.61-.93l2.17-.63c.45-.13.92.13,1.05.58.13.45-.13.92-.58,1.05h0l-2.18.63s-.09.02-.13.03"/><path class="cls-5" d="m235.3,87.87c-.47.06-.89-.27-.95-.73-.05-.41.2-.81.6-.92l2.17-.64c.45-.13.92.12,1.05.57.13.45-.12.92-.57,1.05l-2.17.64s-.09.02-.13.03"/><path class="cls-5" d="m239.64,86.59c-.46.06-.89-.27-.95-.73-.06-.42.2-.81.6-.93l2.17-.64c.45-.13.92.12,1.06.57s-.12.92-.57,1.06l-2.17.64s-.09.02-.13.03"/><path class="cls-5" d="m243.99,85.3c-.47.06-.89-.27-.95-.73-.05-.41.2-.8.6-.92l2.17-.65c.45-.13.92.12,1.06.57s-.12.92-.57,1.06l-2.17.65s-.09.02-.14.03"/><path class="cls-5" d="m104.84,102.5c-.47.06-.89-.27-.95-.73-.02-.18.01-.36.1-.52.39-.71.85-1.37,1.38-1.99.31-.35.84-.39,1.2-.08.35.3.39.82.1,1.18-.45.53-.85,1.1-1.19,1.71-.13.24-.37.4-.64.43"/><path class="cls-5" d="m248.33,84.01c-.46.06-.89-.27-.95-.73-.05-.41.2-.81.6-.92l2.17-.65c.45-.14.92.12,1.06.57.14.45-.12.92-.57,1.06h0l-2.17.65s-.09.02-.14.03"/><path class="cls-5" d="m252.67,82.7c-.47.06-.89-.27-.95-.73-.05-.41.2-.8.6-.92l2.17-.66c.45-.14.92.12,1.06.57s-.12.92-.57,1.06l-2.17.66s-.09.02-.14.03"/><path class="cls-5" d="m257.01,81.38c-.46.06-.89-.27-.95-.73-.05-.41.2-.81.6-.92l2.17-.66c.45-.14.92.11,1.06.56.14.45-.11.92-.56,1.06l-2.17.66s-.09.02-.14.03"/><path class="cls-5" d="m261.34,80.06c-.46.06-.89-.26-.95-.73-.06-.41.2-.81.6-.93l2.17-.67c.45-.14.92.11,1.06.56.14.45-.11.92-.56,1.06h0l-2.17.67s-.09.02-.14.03"/><path class="cls-5" d="m107.69,99.03c-.46.06-.89-.27-.95-.73-.04-.28.07-.55.27-.74.55-.5,1.16-.99,1.82-1.48.35-.31.89-.28,1.2.08.31.35.28.89-.08,1.2-.04.03-.08.06-.12.09-.62.45-1.19.92-1.69,1.37-.13.12-.29.19-.46.21"/><path class="cls-5" d="m265.67,78.71c-.46.06-.89-.27-.95-.73-.05-.41.2-.8.59-.92l2.16-.67c.44-.15.93.09,1.08.53.15.44-.09.93-.53,1.08-.02,0-.03,0-.05.01l-2.17.67s-.1.02-.15.03"/><path class="cls-5" d="m270,77.37c-.46.06-.89-.26-.96-.73-.06-.41.2-.81.6-.93l2.16-.67c.45-.14.92.11,1.06.56.14.45-.11.92-.56,1.06h0l-2.17.68s-.1.03-.15.03"/><path class="cls-5" d="m274.32,76.02c-.47.06-.89-.27-.95-.74-.05-.41.2-.79.59-.91l2.16-.68c.45-.14.92.11,1.07.55s-.11.92-.55,1.07l-2.16.68s-.1.03-.15.03"/><path class="cls-5" d="m111.32,96.32c-.46.06-.89-.27-.95-.73-.04-.33.11-.65.39-.83.62-.39,1.3-.79,2-1.17.41-.23.93-.08,1.15.33.23.41.08.93-.33,1.15-.67.37-1.32.75-1.91,1.13-.1.07-.22.11-.34.12"/><path class="cls-5" d="m278.66,74.65c-.47.06-.89-.27-.95-.73-.05-.41.2-.8.59-.92l2.16-.68c.45-.14.92.11,1.07.55.14.45-.11.92-.55,1.07l-2.16.69s-.1.03-.15.03"/><path class="cls-5" d="m282.99,73.28c-.46.06-.89-.26-.95-.73-.05-.41.19-.8.59-.92l2.16-.69c.45-.14.92.11,1.06.56.14.44-.1.91-.55,1.06l-2.16.69s-.1.03-.15.03"/><path class="cls-5" d="m115.29,94.13c-.47.06-.89-.28-.94-.74-.04-.35.14-.7.46-.86.66-.33,1.36-.66,2.08-.98.43-.19.93,0,1.12.42s0,.93-.42,1.12h0c-.7.31-1.38.64-2.02.95-.08.04-.18.07-.27.08"/><path class="cls-5" d="m287.32,71.9c-.46.06-.89-.27-.95-.73-.05-.41.19-.79.58-.92l2.16-.7c.45-.14.92.1,1.07.55.14.45-.1.92-.55,1.07h0l-2.17.7s-.1.03-.15.03"/><path class="cls-5" d="m291.65,70.5c-.46.06-.89-.27-.95-.73-.05-.41.19-.79.58-.92,1.34-.43,2.05-.67,2.05-.67.45-.15.93.1,1.07.54.15.45-.1.93-.54,1.07h0s-.71.23-2.05.67c-.05.02-.1.03-.16.04"/><path class="cls-5" d="m119.43,92.26c-.47.06-.89-.27-.95-.74-.05-.38.16-.74.52-.89.68-.28,1.4-.57,2.13-.85.44-.17.93.05,1.1.49s-.05.93-.49,1.1h0c-.71.27-1.42.55-2.09.83-.07.03-.14.05-.22.06"/><path class="cls-5" d="m123.67,90.64c-.46.06-.89-.27-.95-.73-.05-.4.18-.78.56-.91.7-.25,1.43-.5,2.16-.74.44-.15.93.09,1.07.54s-.09.93-.54,1.07h0c-.72.24-1.44.49-2.13.73-.06.02-.12.04-.18.04"/><path class="cls-5" d="m127.97,89.2c-.46.06-.89-.27-.95-.73-.05-.41.2-.8.59-.92.71-.22,1.45-.45,2.18-.67.45-.13.92.12,1.06.57.13.45-.12.92-.57,1.06-.73.22-1.46.44-2.16.66-.05.02-.1.03-.15.03"/><path class="cls-5" d="m132.33,87.91c-.47.06-.89-.27-.95-.74-.05-.42.21-.81.61-.92.73-.2,1.46-.4,2.2-.6.45-.12.92.15,1.04.6s-.15.92-.6,1.04c-.73.19-1.46.39-2.18.59-.04.01-.08.02-.12.02"/><path class="cls-5" d="m136.72,86.75c-.46.06-.89-.26-.96-.72-.06-.43.22-.84.65-.94.73-.18,1.48-.36,2.22-.54.46-.11.91.17,1.02.63.11.46-.17.91-.63,1.02-.73.17-1.48.35-2.2.54-.03,0-.07.01-.1.02"/><path class="cls-5" d="m141.14,85.7c-.47.06-.89-.27-.95-.73-.06-.44.23-.84.66-.94.74-.17,1.49-.33,2.23-.48.46-.1.91.2,1.01.66s-.2.91-.66,1.01c-.73.15-1.47.32-2.21.48-.03,0-.05.01-.08.01"/><path class="cls-5" d="m145.59,84.76c-.47.06-.89-.27-.95-.74-.05-.44.24-.85.68-.94,1.42-.28,2.23-.42,2.27-.42.46-.08.9.23.98.69.08.46-.23.9-.69.98,0,0-.83.14-2.23.42h-.06"/><path id="Path_4787" class="cls-8" d="m303.59,81.92l29.59-22.17-28.89,5.45,2.88,4.63-5.16,7.43,1.58,4.66Z"/><path id="Path_4788" class="cls-13" d="m333.18,59.76l-32.65,10.41-22.19,20.03,54.84-30.44Z"/><path id="Path_4789" class="cls-13" d="m304.29,65.2l28.89-5.45-31.59-5.02,2.7,10.47Z"/><g id="Group_1154"><g id="Group_1153"><g id="Group_1152"><path id="Path_4790" class="cls-5" d="m247.31,218.21c-.35-.17-.74-.25-1.14-.24h-1.81v2.37h1.81c.39.02.79-.07,1.14-.25.31-.21.47-.58.42-.95.05-.37-.12-.73-.42-.93"/><path id="Path_4791" class="cls-5" d="m203.9,221.89h2.74l-1.37-3.55-1.37,3.55Z"/><path id="Path_4792" class="cls-5" d="m198.13,218.21c-.35-.17-.74-.25-1.14-.24h-1.81v2.37h1.81c.39.02.79-.07,1.14-.25.31-.21.47-.58.42-.95.05-.37-.12-.73-.42-.93"/><path id="Path_4793" class="cls-5" d="m253.51,211.12h-72.09c-1.83,0-3.3,1.48-3.3,3.3v12.71c0,1.83,1.48,3.3,3.3,3.3h72.09c1.83,0,3.3-1.48,3.3-3.3v-12.71c0-1.83-1.48-3.3-3.3-3.3m-61.26,6.51c0,.19-.15.33-.34.34h-2.24v6.84c0,.19-.15.33-.34.34h-1.01c-.19,0-.33-.15-.34-.34v-6.83h-2.24c-.19,0-.33-.15-.34-.34v-.89c0-.19.15-.33.34-.34h6.17c.19,0,.33.15.34.34v.88Zm8.01,7.43c-.05.05-.12.08-.19.08h-1.06c-.13.01-.27-.03-.37-.12-.07-.06-.12-.14-.17-.22l-1.63-2.91h-1.66v2.91c0,.19-.15.33-.34.34h-1.01c-.19,0-.33-.15-.34-.34v-8.06c0-.19.15-.33.34-.34h3.22c.85-.06,1.7.2,2.37.72.55.52.85,1.25.81,2.01.02.55-.13,1.09-.42,1.55-.3.44-.73.78-1.23.95l1.72,3.08s.04.09.04.14c0,.07-.03.14-.08.19m9.14-.02c-.06.06-.15.1-.24.1h-.9c-.13.01-.25-.02-.35-.11-.06-.06-.11-.13-.14-.21l-.54-1.38h-3.94l-.54,1.38c-.03.08-.08.15-.14.21-.1.08-.22.12-.35.11h-.9c-.19,0-.34-.15-.34-.34,0-.03,0-.06.01-.09l3.06-7.88c.04-.12.1-.22.17-.32.08-.08.19-.11.3-.11h1.37c.11,0,.22.03.3.11.08.09.14.2.17.32l3.06,7.88s.01.06.01.09c0,.09-.04.18-.1.24m8.11-.24c0,.19-.15.33-.34.34h-.87c-.12,0-.24-.03-.32-.11-.06-.06-.11-.11-.16-.17l-3.49-5.19v5.14c0,.19-.15.33-.34.34h-1.01c-.19,0-.33-.15-.34-.34v-8.06c0-.19.15-.33.34-.34h.87c.12,0,.24.03.32.11.07.07.13.13.16.17l3.49,5.19v-5.14c0-.19.15-.33.34-.34h1.01c.19,0,.33.15.34.34v8.06Zm8.36-1.1c-.17.33-.41.61-.71.82-.34.25-.73.43-1.14.54-.49.14-1,.21-1.51.2-.45,0-.9-.05-1.34-.17-.4-.1-.78-.27-1.13-.49-.31-.2-.58-.46-.79-.77-.2-.3-.32-.64-.34-1-.01-.09.02-.18.09-.24.07-.06.15-.09.24-.09h.87c.11,0,.23.02.32.08.08.06.15.13.19.22.06.11.13.22.21.32.09.12.21.21.34.29.17.09.34.16.53.21.26.06.53.09.79.08.24,0,.48-.02.72-.06.21-.03.42-.09.61-.19.16-.08.31-.19.42-.33.11-.14.17-.31.16-.48,0-.17-.06-.33-.17-.45-.15-.14-.33-.24-.53-.3-.29-.1-.58-.18-.88-.24-.35-.07-.75-.17-1.21-.29-.37-.09-.74-.2-1.09-.35-.29-.12-.55-.29-.77-.51-.2-.2-.36-.44-.46-.7-.11-.31-.16-.64-.15-.97,0-.36.08-.72.25-1.03.17-.32.4-.59.69-.81.31-.24.67-.42,1.04-.53.42-.13.86-.2,1.3-.19.5,0,1,.07,1.47.22.38.13.74.32,1.06.56.26.2.48.45.64.74.13.24.22.5.24.77.01.09-.02.18-.09.24-.07.06-.15.09-.24.09h-.87c-.11,0-.22-.02-.32-.08-.08-.06-.14-.13-.19-.22-.14-.22-.34-.41-.57-.54-.35-.18-.74-.26-1.13-.23-.21,0-.41.02-.62.07-.18.04-.35.11-.51.2-.14.08-.25.19-.34.32-.08.13-.13.27-.12.42,0,.16.03.33.12.47.1.14.24.25.4.31.24.1.49.19.74.24.31.08.69.16,1.15.26.44.09.87.22,1.29.38.32.12.62.3.89.52.22.19.4.43.51.7.12.29.17.6.17.91,0,.36-.08.72-.25,1.04m7.67-6.07c0,.19-.15.33-.34.34h-3.98v2.42h3.73c.18,0,.33.15.34.34v.89c0,.19-.15.34-.34.34h-3.73v2.86c0,.18-.15.33-.34.34h-1.01c-.19,0-.33-.15-.34-.34v-8.06c0-.19.15-.33.34-.34h5.33c.19,0,.33.15.34.34v.89Zm7.6,7.17c0,.19-.15.33-.34.34h-5.47c-.19,0-.33-.15-.34-.34v-8.06c0-.19.15-.33.34-.34h5.38c.19,0,.33.15.34.34v.89c0,.19-.15.33-.34.34h-4.03v1.98h3.75c.19,0,.33.15.34.34v.89c0,.19-.15.34-.34.34h-3.75v2.07h4.13c.19,0,.33.15.34.34v.88Zm8.31.26c-.05.05-.12.08-.19.08h-1.06c-.13.01-.27-.03-.37-.12-.07-.06-.12-.14-.17-.22l-1.63-2.91h-1.66v2.91c0,.19-.15.33-.34.34h-1.01c-.19,0-.33-.15-.34-.34v-8.06c0-.19.15-.33.34-.34h3.22c.85-.06,1.7.2,2.37.72.55.52.85,1.25.81,2.01.02.55-.13,1.09-.42,1.55-.3.44-.73.78-1.23.95l1.72,3.08s.04.09.04.14c0,.07-.03.14-.08.19"/></g></g></g><g id="Group_1155"><path id="Path_4794" class="cls-5" d="m57.06,184.07c-3.39,0-6.14,2.73-6.15,6.12v1.05c-1.13,0-2.05.92-2.05,2.05v10.25c0,1.13.92,2.05,2.05,2.05h12.3c1.13,0,2.05-.92,2.05-2.05v-10.25c0-1.13-.92-2.05-2.05-2.05v-1.03c0-3.39-2.74-6.14-6.13-6.15h-.03m0,2.05c2.22-.05,4.05,1.71,4.1,3.93v1.2h-8.2v-1.03c-.05-2.22,1.71-4.05,3.93-4.1.06,0,.11,0,.17,0m0,10.25c1.13,0,2.05.92,2.05,2.05,0,1.13-.92,2.05-2.05,2.05s-2.05-.92-2.05-2.05.92-2.05,2.05-2.05h0"/></g><g id="Group_1158"><path id="Path_4795" class="cls-5" d="m312.66,143.88c-.15,0-.3.03-.44.08l-8,2.99c-.24.09-.41.32-.41.58v3.11c-.03,6.17,3.24,11.88,8.56,14.99.09.06.2.08.31.08.11,0,.22-.02.31-.08,5.32-3.11,8.59-8.83,8.56-14.99v-3.11c0-.26-.16-.5-.41-.58l-8.04-2.99c-.14-.05-.28-.08-.43-.08m0,1.34c.15,0,.3.03.44.08l7.2,2.66v2.68c.02,5.6-2.87,10.8-7.63,13.74-4.76-2.94-7.65-8.14-7.63-13.74v-2.68l7.2-2.66c.14-.05.28-.08.43-.08m.68,2.19c-.33-.04-.63.2-.67.54,0,.02,0,.05,0,.07v12.83c0,.34.29.61.62.6.15,0,.3-.06.41-.17,3.04-2.7,4.76-6.58,4.74-10.64v-.95c0-.26-.16-.5-.41-.58l-4.54-1.67s-.1-.03-.15-.03"/></g><path id="Path_4796" class="cls-13" d="m408.05,99.72c-12.51,1.56-21.38,12.97-19.82,25.47,1.56,12.51,12.97,21.38,25.47,19.82,12.51-1.56,21.38-12.97,19.82-25.47,0,0,0,0,0,0-1.58-12.5-12.97-21.36-25.47-19.81m13.1,17.66v9.33c0,1.28-1.04,2.32-2.33,2.32h-3.19v3.17c0,1.28-1.04,2.32-2.32,2.32h-9.82c-1.28,0-2.32-1.04-2.33-2.32v-9.84s-.01-7.29-.01-7.29h0l3.56,5.21h1.99v3.09h-1.17c-.68,0-1.23.55-1.24,1.23v5.61c0,.68.56,1.23,1.24,1.23h5.72c.68,0,1.24-.55,1.24-1.23v-1.17h-3.46c-1.28,0-2.32-1.04-2.32-2.32v-9.61c0-1.28,1.04-2.32,2.32-2.32h8.6l3.56-5.21-.04,7.29v.52Z"/><path id="Path_4797" class="cls-13" d="m411.25,123.39h-1.42v1.33c0,.67.53,1.22,1.2,1.24h-.09s.08,0,.13,0h1.43v-1.35c0-.68-.56-1.23-1.24-1.23"/><path id="Path_4798" class="cls-13" d="m416.78,117.87h-5.72c-.68,0-1.24.56-1.24,1.24v1.18h3.48c1.28,0,2.32,1.04,2.33,2.32v3.34h1.15c.19,0,.38-.05.56-.14.41-.21.68-.64.68-1.1v-5.61c0-.68-.55-1.24-1.24-1.24"/><path id="Path_4799" class="cls-7" d="m437.27,118.75c-1.82-14.6-15.14-24.95-29.73-23.13-14.6,1.82-24.95,15.14-23.13,29.73s15.14,24.95,29.73,23.13h0c14.6-1.82,24.95-15.14,23.13-29.73m-23.38,27.7c-13.3,1.66-25.43-7.77-27.09-21.07-1.66-13.3,7.77-25.43,21.07-27.09,13.3-1.66,25.43,7.77,27.09,21.07,0,0,0,0,0,0,1.64,13.29-7.78,25.41-21.07,27.09"/></svg>