<svg width="24" height="24" viewBox="0 0 24 24" fill="none" xmlns="http://www.w3.org/2000/svg">
<path id="icons8-website" d="M12.0275 0.0849612C11.9858 0.0849612 11.9378 0.0848215 11.896 0.0907791C10.5258 0.245675 9.0847 2.80755 8.34596 6.63825H15.7091C14.9704 2.80755 13.5293 0.245675 12.159 0.0907791C12.1173 0.0848215 12.0692 0.0849612 12.0275 0.0849612ZM8.6322 0.579483C5.4628 1.51482 2.84735 3.73693 1.38775 6.63825H6.52845C6.94548 4.25523 7.65517 2.09865 8.6322 0.579483ZM15.4229 0.579483C16.3999 2.09865 17.1096 4.25523 17.5266 6.63825H22.6673C21.2077 3.73693 18.5923 1.51482 15.4229 0.579483ZM6.45049 8.4418C6.09381 8.46019 5.8004 8.72919 5.75118 9.08293L5.26131 12.1559L4.37001 10.0964C4.25179 9.82446 3.98352 9.64855 3.68699 9.64855C3.39046 9.64855 3.12218 9.82446 3.00396 10.0964L2.11266 12.1559L1.62279 9.08293C1.57073 8.72389 1.26754 8.45461 0.904865 8.44529C0.681882 8.4396 0.468091 8.53416 0.322281 8.70296C0.17647 8.87176 0.113992 9.09702 0.152027 9.31681L1.04566 14.9171C1.09833 15.2436 1.36001 15.4963 1.68817 15.5375C2.01633 15.5787 2.33234 15.3985 2.46406 15.0951L3.68699 12.2665L4.90991 15.0952C5.04164 15.3985 5.35765 15.5787 5.6858 15.5375C6.01396 15.4963 6.27564 15.2436 6.32831 14.9171L7.22194 9.31681C7.26198 9.09316 7.19774 8.86347 7.04748 8.69305C6.89722 8.52262 6.67739 8.4301 6.45049 8.4418ZM14.791 8.4418C14.4344 8.46019 14.1409 8.72919 14.0917 9.08293L13.6019 12.1559L12.7106 10.0964C12.5923 9.82446 12.3241 9.64855 12.0275 9.64855C11.731 9.64855 11.4627 9.82446 11.3445 10.0964L10.4532 12.1559L9.96334 9.08293C9.91128 8.72389 9.60808 8.45461 9.24541 8.44529C9.02243 8.4396 8.80864 8.53416 8.66283 8.70296C8.51702 8.87176 8.45454 9.09702 8.49257 9.31681L9.3862 14.9171C9.43888 15.2436 9.70056 15.4963 10.0287 15.5375C10.3569 15.5787 10.6729 15.3985 10.8046 15.0951L12.0275 12.2665L13.2505 15.0952C13.3822 15.3985 13.6982 15.5787 14.0264 15.5375C14.3545 15.4963 14.6162 15.2436 14.6689 14.9171L15.5625 9.31681C15.6025 9.09316 15.5383 8.86347 15.388 8.69305C15.2378 8.52262 15.0179 8.4301 14.791 8.4418ZM23.1316 8.4418C22.7749 8.46019 22.4815 8.72919 22.4323 9.08293L21.9424 12.1559L21.0511 10.0964C20.9329 9.82446 20.6646 9.64855 20.3681 9.64855C20.0715 9.64855 19.8033 9.82446 19.6851 10.0964L18.7938 12.1559L18.3039 9.08293C18.2518 8.72389 17.9486 8.45461 17.586 8.44529C17.363 8.4396 17.1492 8.53416 17.0034 8.70296C16.8576 8.87176 16.7951 9.09702 16.8331 9.31681L17.7268 14.9171C17.7794 15.2436 18.0411 15.4963 18.3693 15.5375C18.6974 15.5787 19.0134 15.3985 19.1452 15.0951L20.3681 12.2665L21.591 15.0952C21.7227 15.3985 22.0387 15.5787 22.3669 15.5375C22.6951 15.4963 22.9567 15.2436 23.0094 14.9171L23.903 9.31681C23.9431 9.09316 23.8788 8.86347 23.7286 8.69304C23.5783 8.52262 23.3585 8.4301 23.1316 8.4418ZM1.38775 17.3618C2.84735 20.2631 5.4628 22.4852 8.6322 23.4206C7.65517 21.9014 6.94548 19.7448 6.52845 17.3618H1.38775ZM8.34596 17.3618C9.0847 21.1925 10.5258 23.7544 11.896 23.9093C11.9378 23.9152 11.9858 23.9151 12.0275 23.9151C12.0692 23.9151 12.1173 23.9152 12.159 23.9093C13.5293 23.7544 14.9704 21.1925 15.7091 17.3618H8.34596ZM17.5266 17.3618C17.1096 19.7448 16.3999 21.9014 15.4229 23.4206C18.5923 22.4852 21.2077 20.2631 22.6673 17.3618H17.5266Z" fill="#D1D1D3"/>
</svg>
